<svg data-v-423bf9ae="" xmlns="http://www.w3.org/2000/svg" viewBox="0 0 611 183" class="iconLeft"><!----><!----><!----><g data-v-423bf9ae="" id="ca33264a-c88d-4248-bbf3-d59de97c706a" fill="#162150" transform="matrix(6.615215217067638,0,0,6.615215217067638,197.438066885703,34.3984563078894)"><path d="M5.87 4.03L5.87 4.03Q6.50 4.03 7.17 4.14L7.17 4.14L7.17 4.14Q7.85 4.26 8.25 4.45L8.25 4.45L8.25 4.45Q8.37 4.49 8.41 4.56L8.41 4.56L8.41 4.56Q8.44 4.62 8.46 4.77L8.46 4.77L8.62 6.59L8.62 6.59Q8.62 6.64 8.55 6.65L8.55 6.65L8.55 6.65Q8.48 6.66 8.47 6.61L8.47 6.61L8.47 6.61Q8.06 5.52 7.25 4.94L7.25 4.94L7.25 4.94Q6.43 4.37 5.32 4.37L5.32 4.37L5.32 4.37Q3.86 4.37 3.04 5.39L3.04 5.39L3.04 5.39Q2.21 6.41 2.21 8.13L2.21 8.13L2.21 8.13Q2.21 9.42 2.67 10.50L2.67 10.50L2.67 10.50Q3.12 11.58 3.93 12.21L3.93 12.21L3.93 12.21Q4.73 12.84 5.73 12.84L5.73 12.84L5.73 12.84Q7.62 12.84 8.60 10.49L8.60 10.49L8.60 10.49Q8.61 10.43 8.69 10.44L8.69 10.44L8.69 10.44Q8.76 10.46 8.76 10.50L8.76 10.50L8.55 12.29L8.55 12.29Q8.53 12.46 8.49 12.51L8.49 12.51L8.49 12.51Q8.46 12.56 8.33 12.61L8.33 12.61L8.33 12.61Q7.11 13.10 5.74 13.10L5.74 13.10L5.74 13.10Q4.03 13.10 2.90 12.43L2.90 12.43L2.90 12.43Q1.76 11.75 1.23 10.70L1.23 10.70L1.23 10.70Q0.69 9.65 0.69 8.51L0.69 8.51L0.69 8.51Q0.69 7.20 1.41 6.17L1.41 6.17L1.41 6.17Q2.13 5.15 3.32 4.59L3.32 4.59L3.32 4.59Q4.51 4.03 5.87 4.03L5.87 4.03ZM19.57 12.77L19.57 12.77Q19.61 12.77 19.61 12.85L19.61 12.85L19.61 12.85Q19.61 12.94 19.57 12.94L19.57 12.94L19.57 12.94Q19.10 12.94 18.80 12.92L18.80 12.92L17.78 12.91L16.59 12.92L16.59 12.92Q16.34 12.94 15.92 12.94L15.92 12.94L15.92 12.94Q15.88 12.94 15.88 12.85L15.88 12.85L15.88 12.85Q15.88 12.77 15.92 12.77L15.92 12.77L15.92 12.77Q16.45 12.77 16.69 12.70L16.69 12.70L16.69 12.70Q16.93 12.63 17.01 12.43L17.01 12.43L17.01 12.43Q17.09 12.24 17.09 11.80L17.09 11.80L17.09 8.57L12.29 8.57L12.29 11.80L12.29 11.80Q12.29 12.22 12.38 12.43L12.38 12.43L12.38 12.43Q12.46 12.63 12.71 12.70L12.71 12.70L12.71 12.70Q12.95 12.77 13.48 12.77L13.48 12.77L13.48 12.77Q13.51 12.77 13.51 12.85L13.51 12.85L13.51 12.85Q13.51 12.94 13.48 12.94L13.48 12.94L13.48 12.94Q13.01 12.94 12.74 12.92L12.74 12.92L11.58 12.91L10.56 12.92L10.56 12.92Q10.29 12.94 9.81 12.94L9.81 12.94L9.81 12.94Q9.79 12.94 9.79 12.85L9.79 12.85L9.79 12.85Q9.79 12.77 9.81 12.77L9.81 12.77L9.81 12.77Q10.32 12.77 10.56 12.70L10.56 12.70L10.56 12.70Q10.79 12.63 10.88 12.43L10.88 12.43L10.88 12.43Q10.96 12.22 10.96 11.80L10.96 11.80L10.96 5.32L10.96 5.32Q10.96 4.90 10.88 4.70L10.88 4.70L10.88 4.70Q10.79 4.51 10.56 4.43L10.56 4.43L10.56 4.43Q10.32 4.35 9.83 4.35L9.83 4.35L9.83 4.35Q9.80 4.35 9.80 4.27L9.80 4.27L9.80 4.27Q9.80 4.19 9.83 4.19L9.83 4.19L10.57 4.20L10.57 4.20Q11.21 4.23 11.58 4.23L11.58 4.23L11.58 4.23Q12.07 4.23 12.74 4.20L12.74 4.20L13.48 4.19L13.48 4.19Q13.51 4.19 13.51 4.27L13.51 4.27L13.51 4.27Q13.51 4.35 13.48 4.35L13.48 4.35L13.48 4.35Q12.96 4.35 12.72 4.44L12.72 4.44L12.72 4.44Q12.47 4.52 12.38 4.72L12.38 4.72L12.38 4.72Q12.29 4.93 12.29 5.35L12.29 5.35L12.29 8.20L17.09 8.20L17.09 5.35L17.09 5.35Q17.09 4.93 17.01 4.72L17.01 4.72L17.01 4.72Q16.93 4.52 16.68 4.44L16.68 4.44L16.68 4.44Q16.44 4.35 15.92 4.35L15.92 4.35L15.92 4.35Q15.88 4.35 15.88 4.27L15.88 4.27L15.88 4.27Q15.88 4.19 15.92 4.19L15.92 4.19L16.59 4.20L16.59 4.20Q17.26 4.23 17.78 4.23L17.78 4.23L17.78 4.23Q18.16 4.23 18.80 4.20L18.80 4.20L19.57 4.19L19.57 4.19Q19.61 4.19 19.61 4.27L19.61 4.27L19.61 4.27Q19.61 4.35 19.57 4.35L19.57 4.35L19.57 4.35Q19.07 4.35 18.84 4.43L18.84 4.43L18.84 4.43Q18.61 4.51 18.52 4.70L18.52 4.70L18.52 4.70Q18.44 4.90 18.44 5.32L18.44 5.32L18.44 11.80L18.44 11.80Q18.44 12.22 18.52 12.43L18.52 12.43L18.52 12.43Q18.61 12.63 18.84 12.70L18.84 12.70L18.84 12.70Q19.07 12.77 19.57 12.77L19.57 12.77ZM26.88 10.75L26.88 10.75Q26.88 10.72 26.94 10.72L26.94 10.72L26.94 10.72Q26.98 10.72 27.01 10.75L27.01 10.75L27.01 10.75Q27.05 10.77 27.05 10.78L27.05 10.78L27.05 10.78Q26.91 11.84 26.91 12.73L26.91 12.73L26.91 12.73Q26.91 12.84 26.87 12.89L26.87 12.89L26.87 12.89Q26.82 12.94 26.70 12.94L26.70 12.94L20.62 12.94L20.62 12.94Q20.58 12.94 20.58 12.85L20.58 12.85L20.58 12.85Q20.58 12.77 20.62 12.77L20.62 12.77L20.62 12.77Q21.10 12.77 21.31 12.70L21.31 12.70L21.31 12.70Q21.53 12.63 21.61 12.43L21.61 12.43L21.61 12.43Q21.69 12.22 21.69 11.80L21.69 11.80L21.69 5.32L21.69 5.32Q21.69 4.90 21.61 4.70L21.61 4.70L21.61 4.70Q21.53 4.51 21.31 4.43L21.31 4.43L21.31 4.43Q21.08 4.35 20.62 4.35L20.62 4.35L20.62 4.35Q20.58 4.35 20.58 4.27L20.58 4.27L20.58 4.27Q20.58 4.19 20.62 4.19L20.62 4.19L26.45 4.19L26.45 4.19Q26.59 4.19 26.59 4.31L26.59 4.31L26.61 6.13L26.61 6.13Q26.61 6.16 26.54 6.17L26.54 6.17L26.54 6.17Q26.46 6.19 26.45 6.15L26.45 6.15L26.45 6.15Q26.11 4.55 24.50 4.55L24.50 4.55L23.94 4.55L23.94 4.55Q23.44 4.55 23.23 4.73L23.23 4.73L23.23 4.73Q23.02 4.91 23.02 5.35L23.02 5.35L23.02 8.20L24.36 8.20L24.36 8.20Q25.90 8.20 25.90 7.17L25.90 7.17L25.90 7.17Q25.90 7.13 25.98 7.13L25.98 7.13L25.98 7.13Q26.05 7.13 26.05 7.17L26.05 7.17L26.04 8.39L26.05 9.04L26.05 9.04Q26.08 9.49 26.08 9.77L26.08 9.77L26.08 9.77Q26.08 9.80 26.00 9.80L26.00 9.80L26.00 9.80Q25.91 9.80 25.91 9.77L25.91 9.77L25.91 9.77Q25.91 8.57 24.35 8.57L24.35 8.57L23.02 8.57L23.02 11.75L23.02 11.75Q23.02 12.21 23.19 12.39L23.19 12.39L23.19 12.39Q23.37 12.57 23.81 12.57L23.81 12.57L24.50 12.57L24.50 12.57Q26.38 12.57 26.88 10.75L26.88 10.75ZM34.24 4.31L34.27 6.13L34.27 6.13Q34.27 6.16 34.20 6.17L34.20 6.17L34.20 6.17Q34.12 6.19 34.10 6.15L34.10 6.15L34.10 6.15Q33.77 4.55 32.16 4.55L32.16 4.55L31.60 4.55L31.60 4.55Q31.09 4.55 30.88 4.73L30.88 4.73L30.88 4.73Q30.67 4.91 30.67 5.33L30.67 5.33L30.67 8.37L31.82 8.37L31.82 8.37Q33.39 8.37 33.39 7.32L33.39 7.32L33.39 7.32Q33.39 7.29 33.47 7.29L33.47 7.29L33.47 7.29Q33.56 7.29 33.56 7.32L33.56 7.32L33.54 8.55L33.54 8.55Q33.54 8.99 33.56 9.20L33.56 9.20L33.57 9.93L33.57 9.93Q33.57 9.97 33.49 9.97L33.49 9.97L33.49 9.97Q33.40 9.97 33.40 9.93L33.40 9.93L33.40 9.93Q33.40 8.74 31.79 8.74L31.79 8.74L30.67 8.74L30.67 11.75L30.67 11.75Q30.67 12.19 30.79 12.40L30.79 12.40L30.79 12.40Q30.90 12.60 31.23 12.68L31.23 12.68L31.23 12.68Q31.56 12.77 32.24 12.77L32.24 12.77L32.24 12.77Q32.27 12.77 32.27 12.85L32.27 12.85L32.27 12.85Q32.27 12.94 32.24 12.94L32.24 12.94L32.24 12.94Q31.67 12.94 31.35 12.92L31.35 12.92L29.97 12.91L28.95 12.92L28.95 12.92Q28.69 12.94 28.21 12.94L28.21 12.94L28.21 12.94Q28.17 12.94 28.17 12.85L28.17 12.85L28.17 12.85Q28.17 12.77 28.21 12.77L28.21 12.77L28.21 12.77Q28.71 12.77 28.95 12.70L28.95 12.70L28.95 12.70Q29.18 12.63 29.26 12.43L29.26 12.43L29.26 12.43Q29.34 12.22 29.34 11.80L29.34 11.80L29.34 5.32L29.34 5.32Q29.34 4.90 29.27 4.70L29.27 4.70L29.27 4.70Q29.19 4.51 28.97 4.43L28.97 4.43L28.97 4.43Q28.74 4.35 28.28 4.35L28.28 4.35L28.28 4.35Q28.24 4.35 28.24 4.27L28.24 4.27L28.24 4.27Q28.24 4.19 28.28 4.19L28.28 4.19L34.10 4.19L34.10 4.19Q34.24 4.19 34.24 4.31L34.24 4.31ZM35.39 10.72L35.39 10.72Q35.36 10.74 35.34 10.61L35.34 10.61L35.34 10.61Q35.32 10.47 35.32 10.33L35.32 10.33L35.32 10.33Q35.32 10.02 35.36 10.02L35.36 10.02L39.02 9.37L39.02 9.37Q39.05 9.35 39.07 9.46L39.07 9.46L39.07 9.46Q39.09 9.58 39.09 9.70L39.09 9.70L39.09 9.70Q39.09 9.83 39.07 9.94L39.07 9.94L39.07 9.94Q39.05 10.05 39.02 10.07L39.02 10.07L35.39 10.72ZM51.03 12.77L51.03 12.77Q51.06 12.77 51.06 12.85L51.06 12.85L51.06 12.85Q51.06 12.94 51.03 12.94L51.03 12.94L51.03 12.94Q50.57 12.94 50.29 12.92L50.29 12.92L49.28 12.91L48.30 12.92L48.30 12.92Q48.05 12.94 47.59 12.94L47.59 12.94L47.59 12.94Q47.56 12.94 47.56 12.85L47.56 12.85L47.56 12.85Q47.56 12.77 47.59 12.77L47.59 12.77L47.59 12.77Q48.20 12.77 48.41 12.63L48.41 12.63L48.41 12.63Q48.62 12.49 48.62 12.04L48.62 12.04L48.61 11.80L48.33 5.87L45.35 12.84L45.35 12.84Q45.32 12.89 45.23 12.89L45.23 12.89L45.23 12.89Q45.16 12.89 45.11 12.84L45.11 12.84L41.61 5.92L41.48 11.24L41.48 11.24Q41.47 11.98 41.77 12.38L41.77 12.38L41.77 12.38Q42.07 12.77 42.67 12.77L42.67 12.77L42.67 12.77Q42.71 12.77 42.71 12.85L42.71 12.85L42.71 12.85Q42.71 12.94 42.67 12.94L42.67 12.94L42.67 12.94Q42.29 12.94 42.08 12.92L42.08 12.92L41.31 12.91L40.49 12.92L40.49 12.92Q40.28 12.94 39.90 12.94L39.90 12.94L39.90 12.94Q39.86 12.94 39.86 12.85L39.86 12.85L39.86 12.85Q39.86 12.77 39.90 12.77L39.90 12.77L39.90 12.77Q40.47 12.77 40.79 12.38L40.79 12.38L40.79 12.38Q41.10 11.98 41.12 11.24L41.12 11.24L41.24 5.22L41.24 5.22Q40.99 4.77 40.69 4.56L40.69 4.56L40.69 4.56Q40.39 4.35 40.00 4.35L40.00 4.35L40.00 4.35Q39.96 4.35 39.96 4.27L39.96 4.27L39.96 4.27Q39.96 4.19 40.00 4.19L40.00 4.19L40.60 4.20L40.60 4.20Q40.78 4.21 41.08 4.21L41.08 4.21L41.73 4.20L41.73 4.20Q41.85 4.19 42.01 4.19L42.01 4.19L42.01 4.19Q42.20 4.19 42.31 4.32L42.31 4.32L42.31 4.32Q42.42 4.45 42.66 4.91L42.66 4.91L45.74 10.92L48.52 4.54L48.52 4.54Q48.61 4.34 48.71 4.26L48.71 4.26L48.71 4.26Q48.80 4.19 48.94 4.19L48.94 4.19L48.94 4.19Q49.04 4.19 49.20 4.20L49.20 4.20L49.20 4.20Q49.35 4.21 49.57 4.21L49.57 4.21L50.33 4.20L50.33 4.20Q50.51 4.19 50.88 4.19L50.88 4.19L50.88 4.19Q50.90 4.19 50.90 4.27L50.90 4.27L50.90 4.27Q50.90 4.35 50.88 4.35L50.88 4.35L50.88 4.35Q50.20 4.35 49.90 4.60L49.90 4.60L49.90 4.60Q49.60 4.84 49.63 5.40L49.63 5.40L49.95 11.80L49.95 11.80Q49.98 12.24 50.06 12.43L50.06 12.43L50.06 12.43Q50.13 12.63 50.34 12.70L50.34 12.70L50.34 12.70Q50.55 12.77 51.03 12.77L51.03 12.77ZM54.42 11.80L54.42 11.80Q54.42 12.24 54.49 12.43L54.49 12.43L54.49 12.43Q54.56 12.63 54.77 12.70L54.77 12.70L54.77 12.70Q54.99 12.77 55.47 12.77L55.47 12.77L55.47 12.77Q55.51 12.77 55.51 12.85L55.51 12.85L55.51 12.85Q55.51 12.94 55.47 12.94L55.47 12.94L55.47 12.94Q55.02 12.94 54.75 12.92L54.75 12.92L53.72 12.91L52.71 12.92L52.71 12.92Q52.44 12.94 51.98 12.94L51.98 12.94L51.98 12.94Q51.94 12.94 51.94 12.85L51.94 12.85L51.94 12.85Q51.94 12.77 51.98 12.77L51.98 12.77L51.98 12.77Q52.46 12.77 52.67 12.70L52.67 12.70L52.67 12.70Q52.89 12.63 52.98 12.43L52.98 12.43L52.98 12.43Q53.06 12.22 53.06 11.80L53.06 11.80L53.06 5.32L53.06 5.32Q53.06 4.90 52.98 4.70L52.98 4.70L52.98 4.70Q52.89 4.51 52.67 4.43L52.67 4.43L52.67 4.43Q52.46 4.35 51.98 4.35L51.98 4.35L51.98 4.35Q51.94 4.35 51.94 4.27L51.94 4.27L51.94 4.27Q51.94 4.19 51.98 4.19L51.98 4.19L52.71 4.20L52.71 4.20Q53.33 4.23 53.72 4.23L53.72 4.23L53.72 4.23Q54.15 4.23 54.77 4.20L54.77 4.20L55.47 4.19L55.47 4.19Q55.51 4.19 55.51 4.27L55.51 4.27L55.51 4.27Q55.51 4.35 55.47 4.35L55.47 4.35L55.47 4.35Q55.01 4.35 54.79 4.44L54.79 4.44L54.79 4.44Q54.57 4.52 54.49 4.72L54.49 4.72L54.49 4.72Q54.42 4.93 54.42 5.35L54.42 5.35L54.42 11.80ZM58.41 5.67L58.41 5.67Q58.41 6.19 58.67 6.59L58.67 6.59L58.67 6.59Q58.93 6.99 59.31 7.28L59.31 7.28L59.31 7.28Q59.70 7.57 60.35 7.98L60.35 7.98L60.35 7.98Q61.07 8.43 61.48 8.75L61.48 8.75L61.48 8.75Q61.89 9.07 62.18 9.54L62.18 9.54L62.18 9.54Q62.47 10.01 62.47 10.64L62.47 10.64L62.47 10.64Q62.47 11.35 62.10 11.91L62.10 11.91L62.10 11.91Q61.73 12.47 61.05 12.79L61.05 12.79L61.05 12.79Q60.37 13.10 59.50 13.10L59.50 13.10L59.50 13.10Q58.91 13.10 58.29 12.95L58.29 12.95L58.29 12.95Q57.67 12.80 57.34 12.57L57.34 12.57L57.34 12.57Q57.22 12.49 57.20 12.31L57.20 12.31L57.12 10.18L57.12 10.16L57.12 10.16Q57.12 10.11 57.19 10.10L57.19 10.10L57.19 10.10Q57.26 10.09 57.27 10.15L57.27 10.15L57.27 10.15Q57.74 11.31 58.33 12.05L58.33 12.05L58.33 12.05Q58.93 12.80 59.85 12.80L59.85 12.80L59.85 12.80Q60.45 12.80 60.86 12.47L60.86 12.47L60.86 12.47Q61.26 12.14 61.26 11.37L61.26 11.37L61.26 11.37Q61.26 10.75 60.99 10.29L60.99 10.29L60.99 10.29Q60.72 9.83 60.32 9.52L60.32 9.52L60.32 9.52Q59.92 9.21 59.23 8.76L59.23 8.76L59.23 8.76Q58.56 8.33 58.18 8.03L58.18 8.03L58.18 8.03Q57.81 7.73 57.54 7.29L57.54 7.29L57.54 7.29Q57.27 6.85 57.27 6.26L57.27 6.26L57.27 6.26Q57.27 5.53 57.68 5.03L57.68 5.03L57.68 5.03Q58.09 4.52 58.74 4.28L58.74 4.28L58.74 4.28Q59.39 4.03 60.10 4.03L60.10 4.03L60.10 4.03Q60.58 4.03 61.05 4.12L61.05 4.12L61.05 4.12Q61.53 4.21 61.85 4.35L61.85 4.35L61.85 4.35Q61.98 4.40 62.02 4.46L62.02 4.46L62.02 4.46Q62.06 4.52 62.06 4.62L62.06 4.62L62.10 6.52L62.10 6.52Q62.10 6.57 62.03 6.59L62.03 6.59L62.03 6.59Q61.95 6.61 61.94 6.55L61.94 6.55L61.94 6.55Q61.66 5.70 61.19 5.00L61.19 5.00L61.19 5.00Q60.72 4.31 59.78 4.31L59.78 4.31L59.78 4.31Q59.15 4.31 58.78 4.68L58.78 4.68L58.78 4.68Q58.41 5.04 58.41 5.67L58.41 5.67Z"></path></g><!----><g data-v-423bf9ae="" id="58c52b3f-d676-4413-89df-b4447d40f7a6" transform="matrix(1.4224999321831597,0,0,1.4224999321831597,-0.007777843219486158,0.9527901723117509)" stroke="none" fill="#ECEFE8"><path d="M64 107c1.1 0 2-.9 2-2v-5h5c1.1 0 2-.9 2-2s-.9-2-2-2h-5v-5c0-1.1-.9-2-2-2s-2 .9-2 2v5h-5c-1.1 0-2 .9-2 2s.9 2 2 2h5v5c0 1.1.9 2 2 2zM13.7 89.4c-1.1-.1-2 .8-2.1 1.9V92.5c-11.2-20-9.8-44.7 3.6-63.4l-2.9-2.8C-2.4 46.2-4 72.8 8 94.4l-1-.7c-.9-.6-2.2-.3-2.8.6-.6.9-.3 2.2.6 2.8l7.3 4.6c.9.6 2.2.3 2.8-.6.2-.3.3-.6.3-1l.4-8.6c0-1.1-.8-2.1-1.9-2.1zM64 4c7.6 0 15.1 1.4 22.2 4.2.2-1.3.6-2.6 1.2-3.8-15.1-5.9-31.8-5.9-46.8 0 .6 1.2 1 2.5 1.2 3.8C48.9 5.4 56.4 4 64 4zM20 28.2c1.1 1.1 2.9 1.1 4 0l11.2-10.9C37 15.5 38 13 38 10.5s-1-5-2.8-6.8C31.5.1 25.6.1 22 3.7 18.3.1 12.4.1 8.8 3.7 7 5.5 6 8 6 10.5s1 5 2.8 6.8L20 28.2zM11.6 6.6c2.1-2.1 5.5-2.1 7.6 0L20.6 8c.8.8 2 .8 2.8 0l1.4-1.4c2.1-2.1 5.5-2.1 7.6 0 1 1.1 1.6 2.5 1.6 3.9 0 1.5-.5 2.9-1.6 3.9L22 24.6 11.6 14.4c-1-1.1-1.6-2.5-1.6-3.9 0-1.5.5-2.9 1.6-3.9zM104 28.2c1.1 1.1 2.9 1.1 4 0l11.2-10.9c1.8-1.8 2.8-4.3 2.8-6.8s-1-5-2.8-6.8c-3.7-3.6-9.6-3.6-13.2 0-3.7-3.6-9.6-3.6-13.2 0C91 5.5 90 8 90 10.5s1 5 2.8 6.8L104 28.2zM95.6 6.6c2.1-2.1 5.5-2.1 7.6 0l1.4 1.4c.8.8 2 .8 2.8 0l1.4-1.4c2.1-2.1 5.5-2.1 7.6 0 1 1.1 1.6 2.5 1.6 3.9 0 1.5-.5 2.9-1.6 3.9L106 24.6 95.6 14.4c-1-1.1-1.6-2.5-1.6-3.9 0-1.5.5-2.9 1.6-3.9zM121.3 88.5c-2.6-.4-5.3-.5-8-.5-12 0-40.3 3.6-44.3 36.7v.1c-.1 1 .6 1.9 1.5 2.2 3.4.7 6.9 1 10.4 1 13.4 0 36.6-4.8 42-37.2.3-1.1-.5-2.1-1.6-2.3zM80.9 124c-1.8 0-3.3-.1-4.7-.2L92 112.7c.9-.6 1.1-1.9.5-2.8-.6-.9-1.9-1.1-2.8-.5l-15.9 11.2C79.1 95.9 100.5 92 113.4 92c2.2 0 4 .1 5.3.2-5.3 26.2-23.4 31.8-37.8 31.8zM115.8 26.2l-2.9 2.8c7.2 10 11.1 22.1 11.1 34.5 0 7.1-1.3 14.2-3.8 20.8 1 .1 1.6.2 1.7.2.8.1 1.5.4 2.1.8 7.4-19.8 4.3-42-8.2-59.1z"></path><path d="M26.5 113.6L20.6 81h86.8l-.6 3.3c1.5-.1 2.8-.2 4.1-.3l.6-3h.5c3.3 0 6-2.7 6-6v-2c0-3.3-2.7-6-6-6h-4.2c.1-.8.2-1.7.2-2.5 0-7.7-4.6-14.2-10.6-15.3-.6-6.9-5-12.4-10.5-13.5-.7-7.7-6-13.7-12.4-13.7-4.4 0-8.3 2.8-10.5 7.1-2.2-4.3-6.1-7.1-10.5-7.1-6.4 0-11.7 6-12.4 13.7-5.5 1.1-9.9 6.6-10.5 13.5-6 1.1-10.6 7.6-10.6 15.3 0 .8.1 1.7.2 2.5H16c-3.3 0-6 2.7-6 6v2c0 3.3 2.7 6 6 6h.5l6 33.2c.6 4.4 4.1 7.8 7.8 7.8h35c.2-1.4.5-2.7.8-4H30.4c-1.7 0-3.6-2-3.9-4.4zM104 64.5c0 .8-.1 1.7-.2 2.5H87.2c-.1-.8-.2-1.7-.2-2.5 0-6.3 3.8-11.5 8.5-11.5s8.5 5.2 8.5 11.5zM45.2 67c-.1-.8-.2-1.7-.2-2.5 0-6.3 3.8-11.5 8.5-11.5S62 58.2 62 64.5c0 .8-.1 1.7-.2 2.5H45.2zM64 39.5c4.2 0 7.8 4.2 8.4 9.7-3.7.9-6.8 3.5-8.4 6.9-1.6-3.4-4.7-6-8.4-6.9.6-5.5 4.2-9.7 8.4-9.7zM66.2 67c-.1-.8-.2-1.7-.2-2.5 0-6.3 3.8-11.5 8.5-11.5S83 58.2 83 64.5c0 .8-.1 1.7-.2 2.5H66.2zm27.2-17.8c-3.7.9-6.8 3.5-8.4 6.9-1.6-3.4-4.7-6-8.4-6.9.6-5.5 4.1-9.7 8.4-9.7s7.8 4.2 8.4 9.7zM74.5 26c4.2 0 7.8 4.2 8.4 9.7-3.7.9-6.8 3.5-8.4 6.9-1.6-3.4-4.7-6-8.4-6.9.6-5.5 4.2-9.7 8.4-9.7zm-21 0c4.2 0 7.8 4.2 8.4 9.7-3.7.9-6.8 3.5-8.4 6.9-1.6-3.4-4.7-6-8.4-6.9.6-5.5 4.2-9.7 8.4-9.7zM43 39.5c4.2 0 7.8 4.2 8.4 9.7-3.7.9-6.8 3.5-8.4 6.9-1.6-3.4-4.7-6-8.4-6.9.6-5.5 4.2-9.7 8.4-9.7zm-19 25c0-6.3 3.8-11.5 8.5-11.5S41 58.2 41 64.5c0 .8-.1 1.7-.2 2.5H24.2c-.1-.8-.2-1.7-.2-2.5zM14 75v-2c0-1.1.9-2 2-2h96c1.1 0 2 .9 2 2v2c0 1.1-.9 2-2 2H16c-1.1 0-2-.9-2-2z"></path></g><!----></svg>