<svg data-v-423bf9ae="" xmlns="http://www.w3.org/2000/svg" viewBox="0 0 59.96278178256037 60" class="icon"><!----><!----><!----><!----><g data-v-423bf9ae="" id="9feb2463-5eb0-483f-8cda-db26bd7c83bc" transform="matrix(0.46865848748654093,0,0,0.46865848748654093,-0.007196628091328705,0.011717684030017494)" stroke="none" fill="white"><path d="M64 107c1.1 0 2-.9 2-2v-5h5c1.1 0 2-.9 2-2s-.9-2-2-2h-5v-5c0-1.1-.9-2-2-2s-2 .9-2 2v5h-5c-1.1 0-2 .9-2 2s.9 2 2 2h5v5c0 1.1.9 2 2 2zM13.7 89.4c-1.1-.1-2 .8-2.1 1.9V92.5c-11.2-20-9.8-44.7 3.6-63.4l-2.9-2.8C-2.4 46.2-4 72.8 8 94.4l-1-.7c-.9-.6-2.2-.3-2.8.6-.6.9-.3 2.2.6 2.8l7.3 4.6c.9.6 2.2.3 2.8-.6.2-.3.3-.6.3-1l.4-8.6c0-1.1-.8-2.1-1.9-2.1zM64 4c7.6 0 15.1 1.4 22.2 4.2.2-1.3.6-2.6 1.2-3.8-15.1-5.9-31.8-5.9-46.8 0 .6 1.2 1 2.5 1.2 3.8C48.9 5.4 56.4 4 64 4zM20 28.2c1.1 1.1 2.9 1.1 4 0l11.2-10.9C37 15.5 38 13 38 10.5s-1-5-2.8-6.8C31.5.1 25.6.1 22 3.7 18.3.1 12.4.1 8.8 3.7 7 5.5 6 8 6 10.5s1 5 2.8 6.8L20 28.2zM11.6 6.6c2.1-2.1 5.5-2.1 7.6 0L20.6 8c.8.8 2 .8 2.8 0l1.4-1.4c2.1-2.1 5.5-2.1 7.6 0 1 1.1 1.6 2.5 1.6 3.9 0 1.5-.5 2.9-1.6 3.9L22 24.6 11.6 14.4c-1-1.1-1.6-2.5-1.6-3.9 0-1.5.5-2.9 1.6-3.9zM104 28.2c1.1 1.1 2.9 1.1 4 0l11.2-10.9c1.8-1.8 2.8-4.3 2.8-6.8s-1-5-2.8-6.8c-3.7-3.6-9.6-3.6-13.2 0-3.7-3.6-9.6-3.6-13.2 0C91 5.5 90 8 90 10.5s1 5 2.8 6.8L104 28.2zM95.6 6.6c2.1-2.1 5.5-2.1 7.6 0l1.4 1.4c.8.8 2 .8 2.8 0l1.4-1.4c2.1-2.1 5.5-2.1 7.6 0 1 1.1 1.6 2.5 1.6 3.9 0 1.5-.5 2.9-1.6 3.9L106 24.6 95.6 14.4c-1-1.1-1.6-2.5-1.6-3.9 0-1.5.5-2.9 1.6-3.9zM121.3 88.5c-2.6-.4-5.3-.5-8-.5-12 0-40.3 3.6-44.3 36.7v.1c-.1 1 .6 1.9 1.5 2.2 3.4.7 6.9 1 10.4 1 13.4 0 36.6-4.8 42-37.2.3-1.1-.5-2.1-1.6-2.3zM80.9 124c-1.8 0-3.3-.1-4.7-.2L92 112.7c.9-.6 1.1-1.9.5-2.8-.6-.9-1.9-1.1-2.8-.5l-15.9 11.2C79.1 95.9 100.5 92 113.4 92c2.2 0 4 .1 5.3.2-5.3 26.2-23.4 31.8-37.8 31.8zM115.8 26.2l-2.9 2.8c7.2 10 11.1 22.1 11.1 34.5 0 7.1-1.3 14.2-3.8 20.8 1 .1 1.6.2 1.7.2.8.1 1.5.4 2.1.8 7.4-19.8 4.3-42-8.2-59.1z"></path><path d="M26.5 113.6L20.6 81h86.8l-.6 3.3c1.5-.1 2.8-.2 4.1-.3l.6-3h.5c3.3 0 6-2.7 6-6v-2c0-3.3-2.7-6-6-6h-4.2c.1-.8.2-1.7.2-2.5 0-7.7-4.6-14.2-10.6-15.3-.6-6.9-5-12.4-10.5-13.5-.7-7.7-6-13.7-12.4-13.7-4.4 0-8.3 2.8-10.5 7.1-2.2-4.3-6.1-7.1-10.5-7.1-6.4 0-11.7 6-12.4 13.7-5.5 1.1-9.9 6.6-10.5 13.5-6 1.1-10.6 7.6-10.6 15.3 0 .8.1 1.7.2 2.5H16c-3.3 0-6 2.7-6 6v2c0 3.3 2.7 6 6 6h.5l6 33.2c.6 4.4 4.1 7.8 7.8 7.8h35c.2-1.4.5-2.7.8-4H30.4c-1.7 0-3.6-2-3.9-4.4zM104 64.5c0 .8-.1 1.7-.2 2.5H87.2c-.1-.8-.2-1.7-.2-2.5 0-6.3 3.8-11.5 8.5-11.5s8.5 5.2 8.5 11.5zM45.2 67c-.1-.8-.2-1.7-.2-2.5 0-6.3 3.8-11.5 8.5-11.5S62 58.2 62 64.5c0 .8-.1 1.7-.2 2.5H45.2zM64 39.5c4.2 0 7.8 4.2 8.4 9.7-3.7.9-6.8 3.5-8.4 6.9-1.6-3.4-4.7-6-8.4-6.9.6-5.5 4.2-9.7 8.4-9.7zM66.2 67c-.1-.8-.2-1.7-.2-2.5 0-6.3 3.8-11.5 8.5-11.5S83 58.2 83 64.5c0 .8-.1 1.7-.2 2.5H66.2zm27.2-17.8c-3.7.9-6.8 3.5-8.4 6.9-1.6-3.4-4.7-6-8.4-6.9.6-5.5 4.1-9.7 8.4-9.7s7.8 4.2 8.4 9.7zM74.5 26c4.2 0 7.8 4.2 8.4 9.7-3.7.9-6.8 3.5-8.4 6.9-1.6-3.4-4.7-6-8.4-6.9.6-5.5 4.2-9.7 8.4-9.7zm-21 0c4.2 0 7.8 4.2 8.4 9.7-3.7.9-6.8 3.5-8.4 6.9-1.6-3.4-4.7-6-8.4-6.9.6-5.5 4.2-9.7 8.4-9.7zM43 39.5c4.2 0 7.8 4.2 8.4 9.7-3.7.9-6.8 3.5-8.4 6.9-1.6-3.4-4.7-6-8.4-6.9.6-5.5 4.2-9.7 8.4-9.7zm-19 25c0-6.3 3.8-11.5 8.5-11.5S41 58.2 41 64.5c0 .8-.1 1.7-.2 2.5H24.2c-.1-.8-.2-1.7-.2-2.5zM14 75v-2c0-1.1.9-2 2-2h96c1.1 0 2 .9 2 2v2c0 1.1-.9 2-2 2H16c-1.1 0-2-.9-2-2z"></path></g><!----></svg>